HIERARCHY
ROOT ui
{
	 OFFSET 0 0 0
	 CHANNELS 3 XPosition YPosition Z Position
	 EndSite
	 {
	 OFFSET 0 -1 0
	 }
}
ROOT li
{
	 OFFSET 0 0 0
	 CHANNELS 3 XPosition YPosition Z Position
	 EndSite
	 {
	 OFFSET 0 -1 0
	 }
}
ROOT ul
{
	 OFFSET 0 0 0
	 CHANNELS 3 XPosition YPosition Z Position
	 EndSite
	 {
	 OFFSET 0 -1 0
	 }
}
ROOT ll
{
	 OFFSET 0 0 0
	 CHANNELS 3 XPosition YPosition Z Position
	 EndSite
	 {
	 OFFSET 0 -1 0
	 }
}
ROOT tt
{
	 OFFSET 0 0 0
	 CHANNELS 3 XPosition YPosition Z Position
	 EndSite
	 {
	 OFFSET 0 -1 0
	 }
}
ROOT tb
{
	 OFFSET 0 0 0
	 CHANNELS 3 XPosition YPosition Z Position
	 EndSite
	 {
	 OFFSET 0 -1 0
	 }
}
ROOT td
{
	 OFFSET 0 0 0
	 CHANNELS 3 XPosition YPosition Z Position
	 EndSite
	 {
	 OFFSET 0 -1 0
	 }
}
ROOT v
{
	 OFFSET 0 0 0
	 CHANNELS 3 XPosition YPosition Z Position
	 EndSite
	 {
	 OFFSET 0 -1 0
	 }
}
ROOT bn
{
	 OFFSET 0 0 0
	 CHANNELS 3 XPosition YPosition Z Position
	 EndSite
	 {
	 OFFSET 0 -1 0
	 }
}
MOTION
Frames: 13
Frame Time: 0.002
0.013063947677612304	-9.103249907493591E-4	0		0.5487880859375	-2.52795703125	0		-0.89506689453125	0.3144757995605469	0		-0.1272223587036133	-3.176751953125	0		1.981315673828125	-0.30807009887695314	0		3.398071044921875	-0.3411335754394531	0		4.61573828125	-0.27435726928710935	0		5.803	0.3081016540527344	0		-0.4199800415039063	5.8533310546875	0		
0.016823522567749022	0.002730767011642456	0		0.6102604370117187	-2.543875244140625	0		-0.8213338012695313	0.31350772094726564	0		-0.06270393371582031	-3.18466943359375	0		1.9879599609375	-0.315541015625	0		3.398779052734375	-0.34161016845703124	0		4.60934765625	-0.28582095336914065	0		5.79698876953125	0.27956533813476564	0		-0.4190054931640625	5.8530185546875	0		
0.010505487442016601	-0.004543111801147461	0		0.5589421997070313	-2.537759521484375	0		-0.8935687255859375	0.3138886413574219	0		-0.12402481842041016	-3.175427978515625	0		1.8837984619140624	-0.30399853515625	0		3.371398681640625	-0.3538519287109375	0		4.58603515625	-0.2911588134765625	0		5.79751904296875	0.2784966735839844	0		-0.4189569396972656	5.85470947265625	0		
0.018324785232543946	0.002047308921813965	0		0.589578125	-2.53641357421875	0		-0.8786859130859375	0.3254616394042969	0		-0.08742325592041016	-3.1741015625	0		1.8434071044921876	-0.31805792236328123	0		3.37410595703125	-0.35739404296875	0		4.58677392578125	-0.291747314453125	0		5.78450244140625	0.27767669677734375	0		-0.47289639282226564	5.85390380859375	0		
-0.05791928100585937	0.0034276280403137205	0		0.5662218017578124	-2.531566162109375	0		-0.8779240112304687	0.3251686096191406	0		-0.08383673858642578	-3.171468994140625	0		1.844131591796875	-0.3185092468261719	0		3.3616025390625	-0.3818108215332031	0		4.57257568359375	-0.28421722412109374	0		5.79216162109375	0.27633956909179686	0		-0.4177965087890625	5.85507861328125	0		
0.01978139877319336	0.00135930597782135	0		0.606785888671875	-2.531322265625	0		-0.8092313842773438	0.3202366333007812	0		-0.06325448989868164	-3.16499560546875	0		1.8226839599609375	-0.33375588989257815	0		3.368415283203125	-0.3694183959960938	0		4.56616748046875	-0.2957755126953125	0		5.78904736328125	0.2613729248046875	0		-0.4507754211425781	5.84908544921875	0		
-0.06855441284179688	8.718289732933044E-4	0		0.5553416137695313	-2.526201416015625	0		-0.8815377197265625	0.3206500549316406	0		-0.07470348358154297	-3.15621337890625	0		1.83723583984375	-0.3443433837890625	0		3.321900634765625	-0.386523193359375	0		4.55277099609375	-0.3012735900878906	0		5.77948095703125	0.2465377197265625	0		-0.28344790649414064	5.87719189453125	0		
0.01802981185913086	-0.0032785170078277587	0		0.6156337890625	-2.543142578125	0		-0.8758611450195313	0.3243323974609375	0		-0.12026557159423829	-3.15309423828125	0		1.8138021240234374	-0.3475627746582031	0		3.3204150390625	-0.395052734375	0		4.54539697265625	-0.2988278503417969	0		5.77278466796875	0.2454749755859375	0		-0.43659613037109374	5.8613642578125	0		
-0.0553570442199707	0.002119213104248047	0		0.5701419067382812	-2.531056640625	0		-0.8593269653320312	0.31891943359375	0		-0.052929840087890624	-3.15505224609375	0		1.8262039794921876	-0.36211822509765623	0		3.320669189453125	-0.424593017578125	0		4.5347841796875	-0.3153449401855469	0		5.7773837890625	0.2251260986328125	0		-0.4195621337890625	5.8689208984375	0		
0.02616714096069336	0.0030288689136505125	0		0.6165545654296875	-2.523848388671875	0		-0.8707086181640625	0.3277901306152344	0		-0.07854628753662109	-3.146099853515625	0		1.814824951171875	-0.34842977905273437	0		3.33337255859375	-0.4022403259277344	0		4.53340771484375	-0.30193759155273436	0		5.77002783203125	0.25698056030273436	0		-0.40354940795898436	5.87949853515625	0		
-0.051357025146484374	0.004504395008087158	0		0.5848093872070312	-2.527864013671875	0		-0.8742636108398437	0.3235995483398437	0		-0.05037541580200195	-3.154657470703125	0		1.7970484619140625	-0.3706623840332031	0		3.292662109375	-0.4173493957519531	0		4.5228203125	-0.30542239379882813	0		5.76382177734375	0.22828962707519532	0		-0.37160565185546873	5.8879326171875	0		
0.019986820220947266	-0.004464748859405517	0		0.611038818359375	-2.53143017578125	0		-0.8738163452148437	0.3233857421875	0		-0.09200586700439453	-3.139510986328125	0		1.7903616943359375	-0.3799817199707031	0		3.280041748046875	-0.41970785522460935	0		4.51916748046875	-0.3119502563476563	0		5.76412060546875	0.22717127990722658	0		-0.37079345703125	5.887685546875	0		
0.01847918510437012	0.004301031112670898	0		0.5853133544921875	-2.528462646484375	0		-0.8733928833007812	0.32318844604492186	0		-0.059832260131835936	-3.14307568359375	0		1.79074072265625	-0.3803470458984375	0		3.282288818359375	-0.43318637084960937	0		4.5165009765625	-0.31745758056640627	0		5.7644033203125	0.22611007690429688	0		-0.405067138671875	5.88280517578125	0		
